# xmcd
#
# Track frame offsets: 
#        150
#        17313
#        31863
#        52320
#        64183
#        87495
#        107493
#        119053
#        139915
#        153153
#        176560
#
# Disc length: 2570 seconds
#
# Revision: 0
# Processed by: cddbd v1.5.2PL0 Copyright (c) Steve Scherf et al.
# Submitted via: ExactAudioCopyFreeDBPlugin 1.0
#
DISCID=910a080b
DTITLE=Air - Air
DYEAR=1971
DGENRE=R&B 70's
TTITLE0=Realize
TTITLE1=Mr. Man
TTITLE2=Baby, I Don't Know Where Love
TTITLE3=Martin
TTITLE4=In Our Time
TTITLE5=Man Is Free
TTITLE6=Sister Bessie
TTITLE7=Lipstick
TTITLE8=Man's Got Style
TTITLE9=Jail Cell
TTITLE10=I Wish I Knew How It Would Feel To Be Free
EXTD=
EXTT0=
EXTT1=
EXTT2=
EXTT3=
EXTT4=
EXTT5=
EXTT6=
EXTT7=
EXTT8=
EXTT9=
EXTT10=
PLAYORDER=
